#!OML:ASF X:\für Bonn\!DataBase\2005_08_10_Bjorn_Final\c3d\bjorn.ASF
:FULLY-SPECIFIED
:DEGREES
254
root 0.83831 5.12606 10.7958 -2040.15 -13.5312 182.717
lowerback 42.9269 5.2401 12.7874
upperback 24.5849 1.05629 4.14135
thorax 8.3461 -2.92952 -2.90036
lowerneck -1.68748 0.244846 -2.5125
upperneck 19.0448 1.18376 -14.9035
head 6.10783 -1.34866 -4.36605
rclavicle 3.18055e-015 -1.64494e-014
rhumerus -60.5217 -58.1218 -36.6605
rradius 15.6593
rwrist -3.25175
rhand -11.903 -12.2854
rfingers 7.12502
rthumb 14.1505 -41.7835
lclavicle 3.18055e-015 -1.64494e-014
lhumerus -33.4632 39.2632 72.6486
lradius 8.20835
lwrist -24.3285
lhand -31.8674 8.79626
lfingers 7.12502
lthumb -5.12069 758.714
rfemur -429.48 -33.738 360.309
rtibia 117.915
rfoot 18.5832 16.1247
rtoes -4.94837
lfemur -65.4223 27.4849 0.750593
ltibia 140.917
lfoot -13.4159 -21.3105
ltoes -12.126
255
root 0.806431 5.11503 10.8256 -2040.09 -13.3022 182.531
lowerback 42.9796 5.28452 12.7355
upperback 24.5504 1.09443 4.08428
thorax 8.28765 -2.91878 -2.94321
lowerneck -1.71717 0.25862 -2.71125
upperneck 19.2166 1.20395 -14.8492
head 6.17091 -1.3708 -4.321
rclavicle 5.01931e-015 -5.86415e-014
rhumerus -60.3567 -58.1971 -36.4973
rradius 15.5902
rwrist -2.9324
rhand -11.8055 -12.3763
rfingers 7.12502
rthumb 14.2444 -41.8678
lclavicle 5.01931e-015 -5.86415e-014
lhumerus -33.6659 38.9385 72.8123
lradius 8.41088
lwrist -23.8811
lhand -31.854 8.8125
lfingers 7.12502
lthumb -5.10778 758.731
rfemur -429.61 -33.1207 360.957
rtibia 116.803
rfoot 19.2704 15.6457
rtoes -3.66896
lfemur -65.4659 27.9133 0.569847
ltibia 140.926
lfoot -13.1949 -21.2569
ltoes -11.481
256
root 0.775259 5.1027 10.8545 -2040.04 -13.0659 182.344
lowerback 43.0395 5.33374 12.6826
upperback 24.5182 1.13546 4.03181
thorax 8.23036 -2.90885 -2.98146
lowerneck -1.63671 0.250578 -2.82615
upperneck 19.3047 1.1799 -14.8774
head 6.18402 -1.40538 -4.31551
rclavicle 7.22085e-014 2.80286e-014
rhumerus -59.9352 -58.1308 -36.6375
rradius 15.5275
rwrist -2.80946
rhand -11.738 -12.4975
rfingers 7.12502
rthumb 14.3094 -41.9844
lclavicle 7.22085e-014 2.80286e-014
lhumerus -33.9 38.6141 72.9689
lradius 8.67215
lwrist -23.433
lhand -31.8326 8.92984
lfingers 7.12502
lthumb -5.08714 758.849
rfemur -429.71 -32.5494 361.582
rtibia 115.704
rfoot 19.8988 15.1988
rtoes -2.56318
lfemur -65.5218 28.3714 0.393603
ltibia 140.946
lfoot -13.0142 -21.1829
ltoes -11.0953
257
root 0.744202 5.08778 10.8816 -2039.96 -12.8445 182.132
lowerback 43.074 5.39305 12.6002
upperback 24.4877 1.1808 3.96346
thorax 8.17828 -2.89521 -3.02415
lowerneck -1.56371 0.251394 -2.84686
upperneck 19.4224 1.17237 -14.9772
head 6.20858 -1.43427 -4.35019
rclavicle 1.17705e-013 3.17062e-014
rhumerus -59.462 -58.0143 -36.8825
rradius 15.5075
rwrist -2.77279
rhand -11.6475 -12.6582
rfingers 7.12502
rthumb 14.3967 -42.139
lclavicle 1.17705e-013 3.17062e-014
lhumerus -34.1501 38.2759 73.0864
lradius 8.94746
lwrist -23.0141
lhand -31.7574 8.98264
lfingers 7.12502
lthumb -5.01448 758.903
rfemur -429.833 -32.0036 362.167
rtibia 114.611
rfoot 20.4145 14.7666
rtoes -1.97249
lfemur -65.6377 28.8387 0.170923
ltibia 140.985
lfoot -12.8505 -21.0863
ltoes -10.7755
258
root 0.713771 5.07088 10.907 -2039.9 -12.6145 181.904
lowerback 43.124 5.45468 12.538
upperback 24.4579 1.2365 3.88263
thorax 8.12682 -2.87325 -3.09273
lowerneck -1.42237 0.246522 -2.87734
upperneck 19.498 1.14363 -15.0318
head 6.20579 -1.46393 -4.36681
rclavicle -1.47598e-014 1.91827e-014
rhumerus -58.7991 -57.7701 -37.418
rradius 15.5284
rwrist -2.99306
rhand -11.6161 -12.8088
rfingers 7.12502
rthumb 14.4269 -42.2874
lclavicle -1.47598e-014 1.91827e-014
lhumerus -34.4032 37.8996 73.1848
lradius 9.247
lwrist -22.5324
lhand -31.6505 8.98149
lfingers 7.12502
lthumb -4.91122 758.905
rfemur -429.931 -31.4749 362.72
rtibia 113.532
rfoot 20.784 14.3582
rtoes -1.92322
lfemur -65.7334 29.4015 -0.0085139
ltibia 141.027
lfoot -12.6652 -21.0335
ltoes -10.4156
259
root 0.683669 5.05235 10.93 -2039.83 -12.3862 181.68
lowerback 43.169 5.51344 12.4903
upperback 24.4324 1.29197 3.79675
thorax 8.08405 -2.84867 -3.17442
lowerneck -1.30006 0.240263 -2.86299
upperneck 19.597 1.11759 -15.1183
head 6.21378 -1.49411 -4.40265
rclavicle 9.24349e-015 -1.39646e-014
rhumerus -58.1991 -57.5431 -37.9045
rradius 15.5397
rwrist -3.1594
rhand -11.5475 -12.9702
rfingers 7.12502
rthumb 14.493 -42.444
lclavicle 9.24349e-015 -1.39646e-014
lhumerus -34.6374 37.5134 73.2976
lradius 9.55128
lwrist -22.0579
lhand -31.5996 9.01559
lfingers 7.12502
lthumb -4.86214 758.94
rfemur -430.014 -30.9851 363.235
rtibia 112.464
rfoot 21.0958 13.9635
rtoes -2.10993
lfemur -65.8612 30.048 -0.167315
ltibia 141.1
lfoot -12.5453 -21.0133
ltoes -10.2776
260
root 0.654635 5.03011 10.9505 -2039.77 -12.1583 181.45
lowerback 43.2244 5.58179 12.4389
upperback 24.4154 1.3519 3.71501
thorax 8.04893 -2.82527 -3.25162
lowerneck -1.21548 0.23814 -2.8698
upperneck 19.7223 1.1005 -15.1554
head 6.23766 -1.5199 -4.41946
rclavicle 1.11419e-013 -5.56597e-015
rhumerus -57.4966 -57.2564 -38.5395
rradius 15.6069
rwrist -3.45827
rhand -11.4487 -13.156
rfingers 7.12502
rthumb 14.5882 -42.623
lclavicle 1.11419e-013 -5.56597e-015
lhumerus -34.89 37.1071 73.3882
lradius 9.91234
lwrist -21.5691
lhand -31.4582 9.05038
lfingers 7.12502
lthumb -4.72557 758.978
rfemur -430.104 -30.5333 363.719
rtibia 111.436
rfoot 21.3441 13.5814
rtoes -2.4902
lfemur -65.9886 30.7181 -0.294592
ltibia 141.189
lfoot -12.4017 -21.0233
ltoes -10.0089
261
root 0.626379 5.00608 10.9694 -2039.73 -11.9507 181.222
lowerback 43.3139 5.63938 12.4031
upperback 24.3803 1.41689 3.61688
thorax 7.98573 -2.79431 -3.35292
lowerneck -1.07133 0.231669 -2.83398
upperneck 19.8322 1.06776 -15.1841
head 6.24433 -1.54556 -4.44008
rclavicle 2.78299e-014 -5.03919e-014
rhumerus -56.8614 -56.9228 -39.1732
rradius 15.691
rwrist -3.83194
rhand -11.373 -13.3558
rfingers 7.12502
rthumb 14.6611 -42.8175
lclavicle 2.78299e-014 -5.03919e-014
lhumerus -35.1521 36.6502 73.4536
lradius 10.275
lwrist -21.0783
lhand -31.3269 9.10159
lfingers 7.12502
lthumb -4.59884 759.032
rfemur -430.151 -30.1336 364.167
rtibia 110.416
rfoot 21.5142 13.307
rtoes -3.22549
lfemur -66.1229 31.3443 -0.431633
ltibia 141.288
lfoot -12.29 -21.0157
ltoes -9.83111
262
root 0.599001 4.97954 10.986 -2039.71 -11.7442 181.004
lowerback 43.4016 5.69243 12.4029
upperback 24.3761 1.46948 3.51733
thorax 7.96465 -2.76978 -3.47322
lowerneck -0.931817 0.224631 -2.80561
upperneck 19.9333 1.03413 -15.1972
head 6.24895 -1.56956 -4.45388
rclavicle -9.45967e-014 -8.24956e-015
rhumerus -56.0366 -56.509 -40.0517
rradius 15.8188
rwrist -4.39607
rhand -11.2672 -13.5827
rfingers 7.12502
rthumb 14.7631 -43.037
lclavicle -9.45967e-014 -8.24956e-015
lhumerus -34.5994 34.6016 74.8693
lradius 10.6732
lwrist -18.7415
lhand -31.37 9.43315
lfingers 7.12502
lthumb -4.64043 759.362
rfemur -430.175 -29.7737 364.599
rtibia 109.428
rfoot 21.6393 13.0849
rtoes -3.93766
lfemur -66.2537 31.9963 -0.537027
ltibia 141.397
lfoot -12.1431 -21.0291
ltoes -9.67664
263
root 0.571474 4.95062 11.0017 -2039.72 -11.4815 180.781
lowerback 43.5343 5.75108 12.4372
upperback 24.3538 1.5475 3.42621
thorax 7.91725 -2.73202 -3.60588
lowerneck -0.783835 0.209034 -2.75294
upperneck 20.0677 0.986802 -15.1987
head 6.2615 -1.59981 -4.46989
rclavicle -5.5113e-014 2.52457e-014
rhumerus -55.3425 -56.0679 -40.8251
rradius 15.9691
rwrist -4.95544
rhand -11.1206 -13.8528
rfingers 7.12502
rthumb 14.9043 -43.2966
lclavicle -5.5113e-014 2.52457e-014
lhumerus -34.1492 32.4184 76.2671
lradius 11.1259
lwrist -16.2301
lhand -31.4361 9.77544
lfingers 7.12502
lthumb -4.70425 759.703
rfemur -430.168 -29.3958 365.05
rtibia 108.455
rfoot 21.7473 12.9106
rtoes -4.45478
lfemur -66.3415 32.774 -0.526918
ltibia 141.531
lfoot -12.025 -21.0922
ltoes -9.38322
